# xmcd
#
# Track frame offsets:
#	150
#	16509
#	34054
#	52092
#	69234
#	82816
#	102689
#	114576
#	132444
#	148155
#	157865
#	175651
#	193319
#	204564
#
# Disc length: 2895 seconds
#
# Revision: 1
# Processed by: cddbd v1.5.2PL0 Copyright (c) Steve Scherf et al.
# Submitted via: EasyCDDAExtractor 8.2.3.1
#
DISCID=be0b4d0e
DTITLE="Sneaky Pete" Kleinow - The Legend and The Legacy
DYEAR=1900
DGENRE=Instrumental
TTITLE0=Spanish Harlem
TTITLE1=Flying Medly, Ny Back Pages, Peaceful Easy Feeling, Wheels
TTITLE2=Louisana
TTITLE3=Silverbird
TTITLE4=Turn  Turn  Turn
TTITLE5=Hickory Wind
TTITLE6=Love Is Blue
TTITLE7=Uncharted Melody
TTITLE8=Maria Elana
TTITLE9=Beat The Heat
TTITLE10=Sleepy Lagoon
TTITLE11=Love Of The Common People
TTITLE12=Cannonball Rag
TTITLE13=Oklahoma Rag
EXTD=
EXTT0=
EXTT1=
EXTT2=
EXTT3=
EXTT4=
EXTT5=
EXTT6=
EXTT7=
EXTT8=
EXTT9=
EXTT10=
EXTT11=
EXTT12=
EXTT13=
PLAYORDER=
